# xmcd
#
# Track frame offsets: 
#        150
#        17924
#        36917
#        55098
#        70213
#        88683
#        104772
#        123576
#        141936
#        156739
#        171198
#        187506
#        206882
#        222629
#
# Disc length: 3194 seconds
#
# Revision: 0
# Processed by: cddbd v1.5.2PL0 Copyright (c) Steve Scherf et al.
# Submitted via: ExactAudioCopy v0.99pb5
#
DISCID=da0c780e
DTITLE=Various Artist - KHP Music Presents: Nothin But A Party
DYEAR=2012
DGENRE=Beach
TTITLE0=Andre Lee - Steppin With You
TTITLE1=The Entertainers - Dont Stop Now
TTITLE2=Sir Jon Burton - Nothin But A Party
TTITLE3=Ms Jody - Get Drunk Party
TTITLE4=Tommy Black Band - Lucky Me
TTITLE5=Jackie Gore - My Love Is Your Love (Forever)
TTITLE6=Roy Hamilton - Good Loving
TTITLE7=Ronnie Mcnier - Gypsy Woman (Southern Soul Shag Mix)
TTITLE8=The Tams - Girl Youre Too Young
TTITLE9=Taylor Manning Craig and Doug Manning - Your Precious Love
TTITLE10=Russell Thompkins Jr - If I Only Had Three Wishes
TTITLE11=Gary Lowder and Terri Gore - Come To A Decision
TTITLE12=Summerdaze Band - Foolish Heart
TTITLE13=Ron Moody - Tore Up From The Floor Up
EXTD=
EXTT0=
EXTT1=
EXTT2=
EXTT3=
EXTT4=
EXTT5=
EXTT6=
EXTT7=
EXTT8=
EXTT9=
EXTT10=
EXTT11=
EXTT12=
EXTT13=
PLAYORDER=
